Coordinates
version=1
nRows=17
nColumns=38
inDegrees=no

Units are S.I. units (second, meters, Newtons, ...)
If the header above contains a line with 'inDegrees', this indicates whether rotational values are in degrees (yes) or radians (no).

endheader
time	pelvis_tilt	pelvis_list	pelvis_rotation	pelvis_tx	pelvis_ty	pelvis_tz	hip_flexion_r	hip_adduction_r	hip_rotation_r	knee_angle_r	ankle_angle_r	subtalar_angle_r	mtp_angle_r	hip_flexion_l	hip_adduction_l	hip_rotation_l	knee_angle_l	ankle_angle_l	subtalar_angle_l	mtp_angle_l	lumbar_extension	lumbar_bending	lumbar_rotation	arm_flex_r	arm_add_r	arm_rot_r	elbow_flex_r	pro_sup_r	wrist_flex_r	wrist_dev_r	arm_flex_l	arm_add_l	arm_rot_l	elbow_flex_l	pro_sup_l	wrist_flex_l	wrist_dev_l
0.91	-0.494828	1.47429	-1.01527	0.628114	0.583963	1.0265	0.0951883	0.163127	-0.0117707	0.651205	0.0267847	0	0	0.280149	-0.0807809	-0.08825	1.12994	-0.0498762	0	0	-0.529241	0.0277036	0.152267	-0.0774959	-0.324203	0.33869	0.548955	1.2476	0	0	0.092843	-0.309815	0.577405	0.502556	1.06494	0	0
0.92	-0.467822	1.47668	-1.04776	0.627998	0.574304	1.02708	0.0816977	0.158451	-0.0118025	0.645305	0.0278691	0	0	0.295961	-0.0809469	-0.106782	1.0951	-0.0572626	0	0	-0.527656	0.0220628	0.15309	-0.0724155	-0.331933	0.366402	0.551136	1.21826	0	0	0.0906859	-0.306579	0.563873	0.501131	1.07233	0	0
0.93	-0.443995	1.4778	-1.07722	0.627911	0.564705	1.02756	0.0668689	0.154921	-0.0120648	0.638155	0.0287265	0	0	0.309669	-0.0844921	-0.130587	1.05755	-0.0698389	0	0	-0.527808	0.0175099	0.156449	-0.0738588	-0.333089	0.358465	0.556225	1.2271	0	0	0.0921827	-0.306777	0.570642	0.501691	1.06192	0	0
0.94	-0.43452	1.47862	-1.09253	0.627839	0.554979	1.02777	0.0519418	0.152812	-0.012712	0.630119	0.030376	0	0	0.323141	-0.0932012	-0.162294	1.01994	-0.0832667	0	0	-0.526877	0.0142779	0.159851	-0.0741	-0.336761	0.36171	0.561262	1.22369	0	0	0.0913104	-0.305566	0.56766	0.502311	1.06102	0	0
0.95	-0.420762	1.47479	-1.11468	0.627655	0.544837	1.02807	0.0303909	0.15231	-0.0130238	0.618617	0.0329802	0	0	0.332901	-0.121196	-0.234538	0.989936	-0.1073	0	0	-0.529575	0.0119909	0.165801	-0.0756431	-0.342059	0.366028	0.568673	1.21957	0	0	0.0888332	-0.303973	0.562567	0.504092	1.0604	0	0
0.96	-0.396771	1.47101	-1.14596	0.627727	0.534719	1.02844	0.00785169	0.149918	-0.016419	0.605595	0.034968	0	0	0.337162	-0.147613	-0.310699	0.954072	-0.13045	0	0	-0.533053	0.00916748	0.17062	-0.0783536	-0.341861	0.351843	0.572825	1.23835	0	0	0.0879775	-0.303175	0.564246	0.504639	1.05348	0	0
0.97	-0.38034	1.47519	-1.16358	0.628343	0.525555	1.02838	-0.00320632	0.143611	-0.0233193	0.596679	0.0362776	0	0	0.346253	-0.134792	-0.305375	0.897265	-0.140092	0	0	-0.530665	0.00600587	0.168284	-0.0721964	-0.348622	0.376329	0.573454	1.21253	0	0	0.0872134	-0.299578	0.550789	0.502227	1.06065	0	0
0.98	-0.359533	1.48326	-1.18311	0.629127	0.516698	1.02812	-0.00922266	0.134991	-0.0308714	0.589482	0.0365115	0	0	0.352643	-0.106735	-0.26731	0.822409	-0.142458	0	0	-0.52608	0.00174792	0.164678	-0.0681409	-0.347074	0.374072	0.569879	1.21735	0	0	0.0910039	-0.298202	0.553271	0.498149	1.0565	0	0
0.99	-0.201313	1.49593	-1.33463	0.630243	0.508894	1.02909	-0.0119265	0.114076	-0.0444229	0.583311	0.0349479	0	0	0.316025	-0.0332572	-0.131282	0.64081	-0.141913	0	0	-0.524776	-0.012904	0.151597	-0.0539286	-0.338403	0.373705	0.552346	1.22344	0	0	0.101145	-0.297482	0.556211	0.489505	1.05511	0	0
1	-0.182125	1.49957	-1.35531	0.630979	0.499417	1.02859	-0.0238275	0.109397	-0.0507573	0.573346	0.0359667	0	0	0.312672	-0.0260413	-0.128094	0.561015	-0.158794	0	0	-0.522415	-0.0153398	0.15088	-0.0519328	-0.338518	0.372806	0.551159	1.22761	0	0	0.102258	-0.29574	0.555404	0.486974	1.05496	0	0
1.01	-0.182478	1.50351	-1.35622	0.631799	0.489806	1.02774	-0.035619	0.106438	-0.0573764	0.562645	0.0376367	0	0	0.311492	-0.0203231	-0.12573	0.488281	-0.17613	0	0	-0.519098	-0.0161938	0.150672	-0.0512626	-0.339392	0.371837	0.55171	1.23058	0	0	0.102534	-0.294017	0.553459	0.485193	1.05556	0	0
1.02	-0.195158	1.50808	-1.34478	0.632678	0.480034	1.02658	-0.046477	0.1033	-0.0635312	0.552621	0.0389546	0	0	0.311594	-0.0152003	-0.123915	0.421094	-0.192491	0	0	-0.514535	-0.0163996	0.15064	-0.0511287	-0.340382	0.371449	0.552248	1.23285	0	0	0.101793	-0.292568	0.55062	0.484287	1.05628	0	0
1.03	-0.22989	1.51258	-1.31159	0.633626	0.470132	1.0252	-0.0570482	0.100628	-0.0684943	0.542966	0.039598	0	0	0.312399	-0.0113305	-0.122319	0.359758	-0.209438	0	0	-0.509095	-0.0154398	0.14996	-0.0472059	-0.347731	0.398667	0.553219	1.20412	0	0	0.0973528	-0.288029	0.528796	0.483245	1.07395	0	0
1.04	-0.292957	1.51714	-1.25088	0.634519	0.460052	1.02351	-0.067196	0.0996637	-0.0724776	0.533899	0.0406645	0	0	0.315724	-0.00941021	-0.124483	0.308819	-0.219371	0	0	-0.503053	-0.013763	0.151819	-0.0486839	-0.348804	0.396343	0.554367	1.20842	0	0	0.0954525	-0.287393	0.528617	0.483761	1.07116	0	0
1.05	-0.367889	1.52036	-1.17908	0.635402	0.449761	1.02173	-0.0788825	0.0996117	-0.0766612	0.524431	0.0420492	0	0	0.320223	-0.00957061	-0.13274	0.269293	-0.226483	0	0	-0.49774	-0.0119625	0.154257	-0.0504963	-0.3502	0.395008	0.555982	1.21112	0	0	0.0923661	-0.287089	0.526935	0.48548	1.06944	0	0
1.06	-0.433384	1.5219	-1.11758	0.636209	0.439265	1.02001	-0.0927226	0.0996086	-0.0800409	0.514368	0.0434512	0	0	0.322514	-0.00990021	-0.139649	0.235257	-0.231503	0	0	-0.494027	-0.01095	0.157058	-0.0519226	-0.351396	0.39491	0.557188	1.21364	0	0	0.0887618	-0.287167	0.524624	0.487775	1.0686	0	0
1.07	-0.474877	1.52183	-1.08079	0.636938	0.428596	1.01844	-0.108671	0.0985327	-0.0819875	0.503935	0.0438625	0	0	0.32193	-0.0104456	-0.144938	0.207017	-0.235533	0	0	-0.492326	-0.01094	0.159862	-0.05278	-0.35224	0.395798	0.557958	1.21606	0	0	0.0847452	-0.287355	0.520771	0.490908	1.06829	0	0
